# xmcd
#
# Track frame offsets: 
#        150
#        18720
#        40056
#        62273
#        80068
#        97024
#        120633
#        140408
#        163134
#        179861
#        200939
#        218318
#
# Disc length: 3144 seconds
#
# Revision: 1
# Processed by: cddbd v1.5.1PL2 Copyright (c) Steve Scherf et al.
# Submitted via: ExactAudioCopy v0.95b4
#
DISCID=af0c460c
DTITLE=Plan B - Who Needs Action When You Got Words (UK Promo Advance)
DYEAR=2006
DGENRE=Hip-Hop
TTITLE0=Kidz
TTITLE1=Sick 2 Def
TTITLE2=No Good
TTITLE3=Mama
TTITLE4=Charmaine
TTITLE5=I Don't Hate You
TTITLE6=Everyday
TTITLE7=Tough Love
TTITLE8=Where Ya From?
TTITLE9=No More Eatin'
TTITLE10=Missin' Links
TTITLE11=Who Needs Actions
EXTD=
EXTT0=
EXTT1=
EXTT2=
EXTT3=
EXTT4=
EXTT5=
EXTT6=
EXTT7=
EXTT8=
EXTT9=
EXTT10=
EXTT11=
PLAYORDER=
